<svg xmlns="http://www.w3.org/2000/svg" style="isolation:isolate" viewBox="0 0 256 256"><defs/><defs><clipPath id="a"><path d="M0 0h256v256H0z"/></clipPath></defs><g clip-path="url(#a)"><linearGradient id="b" x1=".333" y1="0" x2=".667" y2=".962" gradientTransform="matrix(230.4 0 0 199.532 12.8 28.234)" gradientUnits="userSpaceOnUse"><stop offset="0%" stop-color="#76f8fb"/><stop offset="100%" stop-color="#d15af9"/></linearGradient><path d="M89.6 28.234L70.4 61.489l19.2 33.256H128L89.6 28.234zm76.8 66.511h38.4l-38.4-66.511H128l38.4 66.511zm76.8 66.51L224 128h-38.4l-19.2 33.255h76.8zm-96 33.256L128 227.766h76.8l19.2-33.255h-76.8zm-96 33.255h38.4l19.2-33.255-19.2-33.256-38.4 66.511zM70.4 128L51.2 94.745l-38.4 66.51L32 194.511 70.4 128zM128 94.745l38.4 66.51H89.6l38.4-66.51z" fill-rule="evenodd" fill="url(#b)"/></g></svg>