<?xml version="1.0" encoding="UTF-8" standalone="no"?>
<svg
   xmlns:osb="http://www.openswatchbook.org/uri/2009/osb"
   xmlns:dc="http://purl.org/dc/elements/1.1/"
   xmlns:cc="http://creativecommons.org/ns#"
   xmlns:rdf="http://www.w3.org/1999/02/22-rdf-syntax-ns#"
   xmlns:svg="http://www.w3.org/2000/svg"
   xmlns="http://www.w3.org/2000/svg"
   width="200.0px"
   height="200.0px"
   viewBox="0 0 200.0 200.0"
   version="1.1"
   id="SVGRoot">
  <g
     id="layer1"
     style="fill:#00fdff;fill-opacity:1;stroke:#000000;stroke-width:0;stroke-miterlimit:4;stroke-dasharray:none">
    <g
       transform="matrix(2.144399,0,0,2.144399,9.924449,19.999999)"
       id="g1187">
      <path
         id="path2695"
         d="M 28,48.498047 14,72.746094 H 27.986328 L 34.984375,60.625 l 0.02539,0.01563 z m 13.992188,24.236328 -0.0059,0.01172 H 42 Z" />
      <path
         id="path2697"
         d="M 49,60.623047 42,72.746094 H 56 70 L 77,60.623047 H 70 63 Z" />
      <path
         id="path2705"
         d="m 28,0 -7.044922,12.199219 6.957031,12.048828 H 42 Z" />
      <path
         id="path2707"
         d="m 14,24.248047 -3.5,6.0625 -3.5,6.0625 -7,12.125 7,12.123047 3.5,-6.0625 L 21,36.373047 Z" />
      <path
         id="path2715"
         d="M 63,36.371094 56,48.498047 H 84 L 77,36.371094 H 76.998 63.001906 Z" />
      <path
         id="path2717"
         d="m 42,0 3.5,6.0625 3.5,6.0625 7,12.123047 H 70 L 66.5,18.1875 63,12.125 56,0 Z" />
      <path
         d="m 28.000001,48.497712 h 28 l -14,-24.248711 z"
         id="path2790" />
    </g>
  </g>
</svg>
